<svg version="1.1" xmlns="http://www.w3.org/2000/svg" xmlns:xlink="http://www.w3.org/1999/xlink" width="1710" height="636" viewBox="0 0 1710 636"><defs/><g transform="matrix(1,0,0,1,0,0)"><g><g><g><path fill="none" stroke="#d3d3d3" paint-order="fill stroke markers" d=" M 0 0 L 1200 0" stroke-miterlimit="10" stroke-opacity="0.8" stroke-dasharray="5"/></g><g><path fill="none" stroke="#d3d3d3" paint-order="fill stroke markers" d=" M 0 0 L 0 800" stroke-miterlimit="10" stroke-opacity="0.8" stroke-dasharray="5"/></g></g><g id="_A6528C26-516E-4CB2-B18A-DCA260333498" bpmn2nodeid="_A6528C26-516E-4CB2-B18A-DCA260333498" transform="matrix(1,0,0,1,596,77)"><g><path fill="none" stroke="none"/></g><g transform="matrix(1,0,0,1,0,0)"><path fill="#ffffff" stroke="none" id="_A6528C26-516E-4CB2-B18A-DCA260333498?shapeType=BACKGROUND" paint-order="stroke fill markers" d=" M 2 0 L 152 0 L 152 0 A 2 2 0 0 1 154 2 L 154 100 L 154 100 A 2 2 0 0 1 152 102 L 2 102 L 2 102 A 2 2 0 0 1 0 100 L 0 2 L 0 2.0000000000000004 A 2 2 0 0 1 1.9999999999999996 0 Z"/></g><g transform="matrix(1,0,0,1,0,0)"><path fill="none" stroke="rgb(0,0,0)" id="_A6528C26-516E-4CB2-B18A-DCA260333498?shapeType=BORDER&amp;renderType=STROKE" paint-order="fill stroke markers" d=" M 2 0 L 152 0 L 152 0 A 2 2 0 0 1 154 2 L 154 100 L 154 100 A 2 2 0 0 1 152 102 L 2 102 L 2 102 A 2 2 0 0 1 0 100 L 0 2 L 0 2.0000000000000004 A 2 2 0 0 1 1.9999999999999996 0 Z" stroke-miterlimit="10" stroke-width="1.5" stroke-dasharray=""/></g><g transform="matrix(1,0,0,1,45,43.5)"><text fill="#000000" stroke="none" font-family="Open Sans" font-size="12pt" font-style="normal" font-weight="normal" text-decoration="normal" x="32" y="12" text-anchor="middle" dominant-baseline="alphabetic">行政照會</text></g></g><g transform="matrix(1,0,0,1,596,77)"/><g id="_B5C66D90-F4EF-43C3-AC11-9C4293F2F908" bpmn2nodeid="_B5C66D90-F4EF-43C3-AC11-9C4293F2F908" transform="matrix(1,0,0,1,96,241)"><g><path fill="none" stroke="none"/></g><g transform="matrix(0.125,0,0,0.125,0,0)"><g transform="matrix(1,0,0,1,0,0)"><path fill="#e8fae6" stroke="none" id="_B5C66D90-F4EF-43C3-AC11-9C4293F2F908?shapeType=BACKGROUND" paint-order="stroke fill markers" d=" M 0 0 M 444 224 C 444 263.9 434.2 300.8 414.4 334.5 C 394.7 368.2 368 394.9 334.4 414.5 C 300.79999999999995 434.1 263.9 444 224 444 C 184.10000000000002 444 147.2 434.2 113.5 414.4 C 79.8 394.7 53.1 368 33.5 334.4 C 13.899999999999999 300.79999999999995 4 263.9 4 224 C 4 184.10000000000002 13.8 147.2 33.6 113.5 C 53.400000000000006 79.80000000000001 80.1 53.1 113.6 33.5 C 147.1 13.899999999999999 184.1 4 224 4 C 263.9 4 300.8 13.8 334.5 33.6 C 368.2 53.400000000000006 394.9 80.1 414.5 113.6 C 434.1 147.1 444 184.1 444 224 Z"/></g><g><g transform="matrix(1,0,0,1,0,0)"><g transform="matrix(1,0,0,1,0,0)"><path fill="rgb(74,162,65)" stroke="none" id="_B5C66D90-F4EF-43C3-AC11-9C4293F2F908?shapeType=BORDER&amp;renderType=FILL" paint-order="stroke fill markers" d=" M 0 0 M 224 0 C 100.3 0 0 100.3 0 224 C 0 347.7 100.3 448 224 448 C 347.7 448 448 347.7 448 224 C 448 100.30000000000001 347.7 0 224 0 Z M 0 0 M 224 432 C 109.1 432 16 338.9 16 224 C 16 109.10000000000002 109.1 16 224 16 C 338.9 16 432 109.1 432 224 C 432 338.9 338.9 432 224 432 Z"/></g></g></g></g><g transform="matrix(1,0,0,1,28,61)"/></g><g id="_645377F8-0122-4188-ACDA-C0A5FFC14952" bpmn2nodeid="_645377F8-0122-4188-ACDA-C0A5FFC14952" transform="matrix(1,0,0,1,226.5,215)"><g><path fill="none" stroke="none"/></g><g transform="matrix(1,0,0,1,0,0)"><path fill="#ffffff" stroke="none" id="_645377F8-0122-4188-ACDA-C0A5FFC14952?shapeType=BACKGROUND" paint-order="stroke fill markers" d=" M 2 0 L 151 0 L 151 0 A 2 2 0 0 1 153 2 L 153 99 L 153 99 A 2 2 0 0 1 151 101 L 2 101 L 2 101 A 2 2 0 0 1 0 99 L 0 2 L 0 2.0000000000000004 A 2 2 0 0 1 1.9999999999999996 0 Z"/></g><g transform="matrix(1,0,0,1,0,0)"><path fill="none" stroke="rgb(57,63,68)" id="_645377F8-0122-4188-ACDA-C0A5FFC14952?shapeType=BORDER&amp;renderType=STROKE" paint-order="fill stroke markers" d=" M 2 0 L 151 0 L 151 0 A 2 2 0 0 1 153 2 L 153 99 L 153 99 A 2 2 0 0 1 151 101 L 2 101 L 2 101 A 2 2 0 0 1 0 99 L 0 2 L 0 2.0000000000000004 A 2 2 0 0 1 1.9999999999999996 0 Z" stroke-miterlimit="10" stroke-width="1.5" stroke-dasharray=""/></g><g transform="matrix(1,0,0,1,1,10)"><g transform="matrix(1,0,0,1,0,0)"><g transform="matrix(1,0,0,1,63,66)"><path fill="none" stroke="#393f44" id="_645377F8-0122-4188-ACDA-C0A5FFC14952undefined" paint-order="fill stroke markers" d=" M 0 0 L 25 0 L 25 25 L 0 25 L 0 0 Z Z" stroke-miterlimit="10" stroke-width="1.5" stroke-dasharray=""/></g><g transform="matrix(0.04,0,0,0.04,68.64,69.6)"><path fill="#000000" stroke="#000000" id="_645377F8-0122-4188-ACDA-C0A5FFC14952undefined" paint-order="fill stroke markers" d=" M 0 0 M 352 184 L 352 232 C 352 238.7 349.7 244.3 345 249 C 340.3 253.7 334.7 256 328 256 L 224 256 L 224 360 C 224 366.7 221.7 372.3 217 377 C 212.3 381.7 206.7 384 200 384 L 152 384 C 145.3 384 139.7 381.7 135 377 C 130.3 372.3 128 366.7 128 360 L 128 256 L 24 256 C 17.3 256 11.7 253.7 7 249 C 2.3000000000000007 244.3 0 238.7 0 232 L 0 184 C 0 177.3 2.3 171.7 7 167 C 11.7 162.3 17.3 160 24 160 L 128 160 L 128 56 C 128 49.3 130.3 43.7 135 39 C 139.7 34.3 145.3 32 152 32 L 200 32 C 206.7 32 212.3 34.3 217 39 C 221.7 43.7 224 49.3 224 56 L 224 160 L 328 160 C 334.7 160 340.3 162.3 345 167 C 349.7 171.7 352 177.3 352 184 Z" stroke-miterlimit="10" stroke-dasharray=""/></g></g></g><g transform="matrix(1,0,0,1,12.82,10)"><g transform="matrix(1,0,0,1,0,0)"><g transform="matrix(1,0,0,1,63,66)"><path fill="none" stroke="none"/></g><g transform="matrix(0.04,0,0,0.04,68.64,69.6)"><path fill="none" stroke="none"/></g><g transform="matrix(0.04,0,0,0.04,40.32,71.04)"><path fill="none" stroke="none"/></g><g transform="matrix(0.04,0,0,0.04,39.36,72)"><path fill="none" stroke="none"/></g></g></g><g transform="matrix(1,0,0,1,44.5,43)"><text fill="#000000" stroke="none" font-family="Open Sans" font-size="12pt" font-style="normal" font-weight="normal" text-decoration="normal" x="32" y="12" text-anchor="middle" dominant-baseline="alphabetic">核保規則</text></g></g><g id="_F1AE383E-25F1-45A3-8AC1-5321A1C22482" bpmn2nodeid="_F1AE383E-25F1-45A3-8AC1-5321A1C22482" transform="matrix(1,0,0,1,455,241)"><g><path fill="none" stroke="none"/></g><g transform="matrix(0.125,0,0,0.125,0,0)"><g transform="matrix(1,0,0,1,0,0)"><path fill="#fef4ea" stroke="none" id="_F1AE383E-25F1-45A3-8AC1-5321A1C22482?shapeType=BACKGROUND" paint-order="stroke fill markers" d=" M 0 0 M 224.4 4.3 C 216.4 4.3 208.4 7.3 202.3 13.399999999999999 L 13.5 202.2 C 1.3000000000000007 214.39999999999998 1.3000000000000007 234.2 13.5 246.39999999999998 L 202.2 435.09999999999997 C 208.29999999999998 441.2 216.39999999999998 444.2 224.29999999999998 444.2 C 232.2 444.2 240.29999999999998 441.2 246.39999999999998 435.09999999999997 L 435.09999999999997 246.39999999999998 C 447.29999999999995 234.2 447.29999999999995 214.39999999999998 435.09999999999997 202.2 L 246.5 13.4 C 240.4 7.3 232.4 4.3 224.4 4.3 L 224.4 4.3 Z"/></g><g><g transform="matrix(1,0,0,1,0,0)"><g transform="matrix(1,0,0,1,0,0)"><path fill="rgb(236,122,8)" stroke="none" id="_F1AE383E-25F1-45A3-8AC1-5321A1C22482?shapeType=BORDER&amp;renderType=FILL" paint-order="stroke fill markers" d=" M 0 0 M 20.8 212.7 L 213.3 20.2 C 219.60000000000002 13.899999999999999 229.70000000000002 13.899999999999999 235.9 20.2 L 428.4 212.7 C 434.7 219 434.7 229.1 428.4 235.29999999999998 L 235.9 427.8 C 229.6 434.1 219.5 434.1 213.3 427.8 L 20.8 235.3 C 14.5 229.1 14.5 218.9 20.8 212.7 L 20.8 212.7 Z M 0 0 M 0 224 C 0 232.1 3.1 240.3 9.3 246.5 L 201.5 438.7 C 213.9 451.09999999999997 234.1 451.09999999999997 246.5 438.7 L 438.7 246.5 C 444.9 240.3 448 232.1 448 224 C 448 215.9 444.9 207.7 438.7 201.5 L 246.5 9.3 C 234.1 -3.0999999999999996 213.9 -3.0999999999999996 201.5 9.3 L 9.3 201.5 C 3.1 207.7 0 215.9 0 224 L 0 224 Z"/></g></g></g><g><g transform="matrix(1,0,0,1,0,0)"><g transform="matrix(1,0,0,1,0,0)"><path fill="#ec7a08" stroke="none" id="_F1AE383E-25F1-45A3-8AC1-5321A1C22482undefined" paint-order="stroke fill markers" d=" M 0 0 M 298.2 269.2 C 298.2 272.59999999999997 297.09999999999997 275.3 294.7 277.7 L 277.7 294.7 C 275.3 297.09999999999997 272.59999999999997 298.2 269.2 298.2 C 265.8 298.2 263.09999999999997 297.09999999999997 260.7 294.7 L 224 258 L 187.2 294.8 C 184.79999999999998 297.2 182.1 298.3 178.7 298.3 C 175.29999999999998 298.3 172.6 297.2 170.2 294.8 L 153.2 277.8 C 150.79999999999998 275.40000000000003 149.7 272.7 149.7 269.3 C 149.7 265.90000000000003 150.79999999999998 263.2 153.2 260.8 L 190 224 L 153.2 187.2 C 150.79999999999998 184.79999999999998 149.7 182 149.7 178.7 C 149.7 175.29999999999998 150.79999999999998 172.5 153.2 170.2 L 170.2 153.2 C 172.6 150.79999999999998 175.29999999999998 149.7 178.7 149.7 C 182.1 149.7 184.79999999999998 150.79999999999998 187.2 153.2 L 224 190 L 260.8 153.2 C 263.2 150.79999999999998 265.90000000000003 149.7 269.3 149.7 C 272.7 149.7 275.40000000000003 150.79999999999998 277.8 153.2 L 294.8 170.2 C 297.2 172.5 298.3 175.29999999999998 298.3 178.7 C 298.3 182 297.2 184.79999999999998 294.8 187.2 L 258 224 L 294.8 260.8 C 297.1 263.1 298.2 265.9 298.2 269.2 Z"/></g></g></g></g><g transform="matrix(1,0,0,1,28,61)"/></g><g id="_A6622B95-260B-455C-8FF4-59B37BDB83CF" bpmn2nodeid="_A6622B95-260B-455C-8FF4-59B37BDB83CF" transform="matrix(1,0,0,1,0,0)"><g><path fill="none" stroke="rgb(0,0,0)" paint-order="fill stroke markers" d=" M 152 269 L 211.5165259575083 266.2039215993117" stroke-miterlimit="10" stroke-dasharray=""/></g><g transform="matrix(1,0,0,1,152,269)"/><g transform="matrix(0.046928106620778884,0.9988982694994465,-0.9988982694994465,0.046928106620778884,226.26535946689611,260.5055086525028)"><path fill="rgb(0,0,0)" stroke="rgb(0,0,0)" paint-order="fill stroke markers" d=" M 10 15 L 0 15 L 5 0 Z" stroke-miterlimit="10" stroke-dasharray=""/></g><g transform="matrix(1,0,0,1,152.4692810662078,257.2610173050055)"/></g><g id="_F98F86E1-4DE3-4606-B7AB-F696C1B3C8EF" bpmn2nodeid="_F98F86E1-4DE3-4606-B7AB-F696C1B3C8EF" transform="matrix(1,0,0,1,0,0)"><g><path fill="none" stroke="rgb(0,0,0)" paint-order="fill stroke markers" d=" M 379.5 265.5 L 440.01609178250015 268.3053817382616" stroke-miterlimit="10" stroke-dasharray=""/></g><g transform="matrix(1,0,0,1,379.5,265.5)"/><g transform="matrix(-0.046307884115894205,0.9989272144999899,-0.9989272144999899,-0.046307884115894205,455.23153942057945,264.00536392750007)"><path fill="rgb(0,0,0)" stroke="rgb(0,0,0)" paint-order="fill stroke markers" d=" M 10 15 L 0 15 L 5 0 Z" stroke-miterlimit="10" stroke-dasharray=""/></g><g transform="matrix(1,0,0,1,379.96307884115896,257.2607278550001)"/></g><g id="_36A4653D-00DF-4A90-84D6-DAF7AF9994DD" bpmn2nodeid="_36A4653D-00DF-4A90-84D6-DAF7AF9994DD" transform="matrix(1,0,0,1,0,0)"><g><path fill="none" stroke="rgb(0,0,0)" paint-order="fill stroke markers" d=" M 511 269 L 588.255783820665 140.8462880151321" stroke-miterlimit="10" stroke-dasharray=""/></g><g transform="matrix(1,0,0,1,511,269)"/><g transform="matrix(0.8564192010088052,0.5162810786223331,-0.5162810786223331,0.8564192010088052,591.7179039949559,125.41859460688833)"><path fill="rgb(0,0,0)" stroke="rgb(0,0,0)" paint-order="fill stroke markers" d=" M 10 15 L 0 15 L 5 0 Z" stroke-miterlimit="10" stroke-dasharray=""/></g><g transform="matrix(1,0,0,1,519.564192010088,193.3371892137767)"/></g><g transform="matrix(1,0,0,1,96,241)"/><g transform="matrix(1,0,0,1,226.5,215)"/><g transform="matrix(1,0,0,1,455,241)"/><g id="_8E6EC0A3-9F2D-460C-9C4F-A3B4B0A3E972" bpmn2nodeid="_8E6EC0A3-9F2D-460C-9C4F-A3B4B0A3E972" transform="matrix(1,0,0,1,1370,264)"><g><path fill="none" stroke="none"/></g><g transform="matrix(1,0,0,1,0,0)"><path fill="#ffffff" stroke="none" id="_8E6EC0A3-9F2D-460C-9C4F-A3B4B0A3E972?shapeType=BACKGROUND" paint-order="stroke fill markers" d=" M 2 0 L 152 0 L 152 0 A 2 2 0 0 1 154 2 L 154 100 L 154 100 A 2 2 0 0 1 152 102 L 2 102 L 2 102 A 2 2 0 0 1 0 100 L 0 2 L 0 2.0000000000000004 A 2 2 0 0 1 1.9999999999999996 0 Z"/></g><g transform="matrix(1,0,0,1,0,0)"><path fill="none" stroke="rgb(0,0,0)" id="_8E6EC0A3-9F2D-460C-9C4F-A3B4B0A3E972?shapeType=BORDER&amp;renderType=STROKE" paint-order="fill stroke markers" d=" M 2 0 L 152 0 L 152 0 A 2 2 0 0 1 154 2 L 154 100 L 154 100 A 2 2 0 0 1 152 102 L 2 102 L 2 102 A 2 2 0 0 1 0 100 L 0 2 L 0 2.0000000000000004 A 2 2 0 0 1 1.9999999999999996 0 Z" stroke-miterlimit="10" stroke-width="1.5" stroke-dasharray=""/></g><g transform="matrix(1,0,0,1,61,43.5)"><text fill="#000000" stroke="none" font-family="Open Sans" font-size="12pt" font-style="normal" font-weight="normal" text-decoration="normal" x="16" y="12" text-anchor="middle" dominant-baseline="alphabetic">發單</text></g></g><g transform="matrix(1,0,0,1,1370,264)"/><g id="_74C152CF-CE01-4631-8017-79DF1140EAE8" bpmn2nodeid="_74C152CF-CE01-4631-8017-79DF1140EAE8" transform="matrix(1,0,0,1,835,241)"><g><path fill="none" stroke="none"/></g><g transform="matrix(0.125,0,0,0.125,0,0)"><g transform="matrix(1,0,0,1,0,0)"><path fill="#fef4ea" stroke="none" id="_74C152CF-CE01-4631-8017-79DF1140EAE8?shapeType=BACKGROUND" paint-order="stroke fill markers" d=" M 0 0 M 224.4 4.3 C 216.4 4.3 208.4 7.3 202.3 13.399999999999999 L 13.5 202.2 C 1.3000000000000007 214.39999999999998 1.3000000000000007 234.2 13.5 246.39999999999998 L 202.2 435.09999999999997 C 208.29999999999998 441.2 216.39999999999998 444.2 224.29999999999998 444.2 C 232.2 444.2 240.29999999999998 441.2 246.39999999999998 435.09999999999997 L 435.09999999999997 246.39999999999998 C 447.29999999999995 234.2 447.29999999999995 214.39999999999998 435.09999999999997 202.2 L 246.5 13.4 C 240.4 7.3 232.4 4.3 224.4 4.3 L 224.4 4.3 Z"/></g><g><g transform="matrix(1,0,0,1,0,0)"><g transform="matrix(1,0,0,1,0,0)"><path fill="rgb(236,122,8)" stroke="none" id="_74C152CF-CE01-4631-8017-79DF1140EAE8?shapeType=BORDER&amp;renderType=FILL" paint-order="stroke fill markers" d=" M 0 0 M 20.8 212.7 L 213.3 20.2 C 219.60000000000002 13.899999999999999 229.70000000000002 13.899999999999999 235.9 20.2 L 428.4 212.7 C 434.7 219 434.7 229.1 428.4 235.29999999999998 L 235.9 427.8 C 229.6 434.1 219.5 434.1 213.3 427.8 L 20.8 235.3 C 14.5 229.1 14.5 218.9 20.8 212.7 L 20.8 212.7 Z M 0 0 M 0 224 C 0 232.1 3.1 240.3 9.3 246.5 L 201.5 438.7 C 213.9 451.09999999999997 234.1 451.09999999999997 246.5 438.7 L 438.7 246.5 C 444.9 240.3 448 232.1 448 224 C 448 215.9 444.9 207.7 438.7 201.5 L 246.5 9.3 C 234.1 -3.0999999999999996 213.9 -3.0999999999999996 201.5 9.3 L 9.3 201.5 C 3.1 207.7 0 215.9 0 224 L 0 224 Z"/></g></g></g><g><g transform="matrix(1,0,0,1,0,0)"><g transform="matrix(1,0,0,1,0,0)"><path fill="#ec7a08" stroke="none" id="_74C152CF-CE01-4631-8017-79DF1140EAE8undefined" paint-order="stroke fill markers" d=" M 0 0 M 298.2 269.2 C 298.2 272.59999999999997 297.09999999999997 275.3 294.7 277.7 L 277.7 294.7 C 275.3 297.09999999999997 272.59999999999997 298.2 269.2 298.2 C 265.8 298.2 263.09999999999997 297.09999999999997 260.7 294.7 L 224 258 L 187.2 294.8 C 184.79999999999998 297.2 182.1 298.3 178.7 298.3 C 175.29999999999998 298.3 172.6 297.2 170.2 294.8 L 153.2 277.8 C 150.79999999999998 275.40000000000003 149.7 272.7 149.7 269.3 C 149.7 265.90000000000003 150.79999999999998 263.2 153.2 260.8 L 190 224 L 153.2 187.2 C 150.79999999999998 184.79999999999998 149.7 182 149.7 178.7 C 149.7 175.29999999999998 150.79999999999998 172.5 153.2 170.2 L 170.2 153.2 C 172.6 150.79999999999998 175.29999999999998 149.7 178.7 149.7 C 182.1 149.7 184.79999999999998 150.79999999999998 187.2 153.2 L 224 190 L 260.8 153.2 C 263.2 150.79999999999998 265.90000000000003 149.7 269.3 149.7 C 272.7 149.7 275.40000000000003 150.79999999999998 277.8 153.2 L 294.8 170.2 C 297.2 172.5 298.3 175.29999999999998 298.3 178.7 C 298.3 182 297.2 184.79999999999998 294.8 187.2 L 258 224 L 294.8 260.8 C 297.1 263.1 298.2 265.9 298.2 269.2 Z"/></g></g></g></g><g transform="matrix(1,0,0,1,28,61)"/></g><g id="_561035AE-BE50-463A-9861-8AA741C909C2" bpmn2nodeid="_561035AE-BE50-463A-9861-8AA741C909C2"><g><path fill="none" stroke="#000000" paint-order="fill stroke markers" d=" M 483 297 L 483 555 L 863 555 L 863 312" stroke-miterlimit="10" stroke-dasharray=""/></g><g transform="matrix(1,0,0,1,483,297)"/><g transform="matrix(1,0,0,1,858,297)"><path fill="#000000" stroke="#000000" paint-order="fill stroke markers" d=" M 10 15 L 0 15 L 5 0 Z" stroke-miterlimit="10" stroke-dasharray=""/></g><g transform="matrix(1,0,0,1,493,426)"/></g><g transform="matrix(1,0,0,1,835,241)"/><g id="_061E80DC-CF15-45E8-928C-5475CB050C65" bpmn2nodeid="_061E80DC-CF15-45E8-928C-5475CB050C65" transform="matrix(1,0,0,1,1007.2222222222222,96)"><g><path fill="none" stroke="none"/></g><g transform="matrix(1,0,0,1,0,0)"><path fill="#ffffff" stroke="none" id="_061E80DC-CF15-45E8-928C-5475CB050C65?shapeType=BACKGROUND" paint-order="stroke fill markers" d=" M 2 0 L 152 0 L 152 0 A 2 2 0 0 1 154 2 L 154 100 L 154 100 A 2 2 0 0 1 152 102 L 2 102 L 2 102 A 2 2 0 0 1 0 100 L 0 2 L 0 2.0000000000000004 A 2 2 0 0 1 1.9999999999999996 0 Z"/></g><g transform="matrix(1,0,0,1,0,0)"><path fill="none" stroke="rgb(0,0,0)" id="_061E80DC-CF15-45E8-928C-5475CB050C65?shapeType=BORDER&amp;renderType=STROKE" paint-order="fill stroke markers" d=" M 2 0 L 152 0 L 152 0 A 2 2 0 0 1 154 2 L 154 100 L 154 100 A 2 2 0 0 1 152 102 L 2 102 L 2 102 A 2 2 0 0 1 0 100 L 0 2 L 0 2.0000000000000004 A 2 2 0 0 1 1.9999999999999996 0 Z" stroke-miterlimit="10" stroke-width="1.5" stroke-dasharray=""/></g><g transform="matrix(1,0,0,1,45,43.5)"><text fill="#000000" stroke="none" font-family="Open Sans" font-size="12pt" font-style="normal" font-weight="normal" text-decoration="normal" x="32" y="12" text-anchor="middle" dominant-baseline="alphabetic">照會體檢</text></g></g><g id="_1EAF7845-0AC7-4BFC-93FC-79A1B632F7C8" bpmn2nodeid="_1EAF7845-0AC7-4BFC-93FC-79A1B632F7C8"><g><path fill="none" stroke="#000000" paint-order="fill stroke markers" d=" M 891 269 L 996.8759128001179 157.8606575004498" stroke-miterlimit="10" stroke-dasharray=""/></g><g transform="matrix(1,0,0,1,891,269)"/><g transform="matrix(0.724043833363321,0.6897539614736167,-0.6897539614736167,0.724043833363321,1003.6020030554056,143.55123019263192)"><path fill="#000000" stroke="#000000" paint-order="fill stroke markers" d=" M 10 15 L 0 15 L 5 0 Z" stroke-miterlimit="10" stroke-dasharray=""/></g><g transform="matrix(1,0,0,1,898.2404383336332,201.1024603852638)"/></g><g transform="matrix(1,0,0,1,1007.2222222222222,96)"/><g id="_4FAD191C-C33A-4B42-A828-45B921B20D6D" bpmn2nodeid="_4FAD191C-C33A-4B42-A828-45B921B20D6D" transform="matrix(1,0,0,1,1007.2222222222222,352)"><g><path fill="none" stroke="none"/></g><g transform="matrix(1,0,0,1,0,0)"><path fill="#ffffff" stroke="none" id="_4FAD191C-C33A-4B42-A828-45B921B20D6D?shapeType=BACKGROUND" paint-order="stroke fill markers" d=" M 2 0 L 152 0 L 152 0 A 2 2 0 0 1 154 2 L 154 100 L 154 100 A 2 2 0 0 1 152 102 L 2 102 L 2 102 A 2 2 0 0 1 0 100 L 0 2 L 0 2.0000000000000004 A 2 2 0 0 1 1.9999999999999996 0 Z"/></g><g transform="matrix(1,0,0,1,0,0)"><path fill="none" stroke="rgb(0,0,0)" id="_4FAD191C-C33A-4B42-A828-45B921B20D6D?shapeType=BORDER&amp;renderType=STROKE" paint-order="fill stroke markers" d=" M 2 0 L 152 0 L 152 0 A 2 2 0 0 1 154 2 L 154 100 L 154 100 A 2 2 0 0 1 152 102 L 2 102 L 2 102 A 2 2 0 0 1 0 100 L 0 2 L 0 2.0000000000000004 A 2 2 0 0 1 1.9999999999999996 0 Z" stroke-miterlimit="10" stroke-width="1.5" stroke-dasharray=""/></g><g transform="matrix(1,0,0,1,45,43.5)"><text fill="#000000" stroke="none" font-family="Open Sans" font-size="12pt" font-style="normal" font-weight="normal" text-decoration="normal" x="32" y="12" text-anchor="middle" dominant-baseline="alphabetic">條件承保</text></g></g><g id="_207DBACF-1BEF-4608-8268-5538A554E978" bpmn2nodeid="_207DBACF-1BEF-4608-8268-5538A554E978"><g><path fill="none" stroke="#000000" paint-order="fill stroke markers" d=" M 891 269 L 997.3939722466989 391.66838482745607" stroke-miterlimit="10" stroke-dasharray=""/></g><g transform="matrix(1,0,0,1,891,269)"/><g transform="matrix(-0.7554410115029278,0.6552166650348826,-0.6552166650348826,-0.7554410115029278,1010.9994272797368,399.7239166748256)"><path fill="#000000" stroke="#000000" paint-order="fill stroke markers" d=" M 10 15 L 0 15 L 5 0 Z" stroke-miterlimit="10" stroke-dasharray=""/></g><g transform="matrix(1,0,0,1,898.5544101150293,329.4478333496512)"/></g><g transform="matrix(1,0,0,1,1007.2222222222222,352)"/><g id="_A6EC067D-15F4-42C4-B407-A116882D0C63" bpmn2nodeid="_A6EC067D-15F4-42C4-B407-A116882D0C63" transform="matrix(1,0,0,1,1007.2222222222222,484)"><g><path fill="none" stroke="none"/></g><g transform="matrix(1,0,0,1,0,0)"><path fill="#ffffff" stroke="none" id="_A6EC067D-15F4-42C4-B407-A116882D0C63?shapeType=BACKGROUND" paint-order="stroke fill markers" d=" M 2 0 L 152 0 L 152 0 A 2 2 0 0 1 154 2 L 154 100 L 154 100 A 2 2 0 0 1 152 102 L 2 102 L 2 102 A 2 2 0 0 1 0 100 L 0 2 L 0 2.0000000000000004 A 2 2 0 0 1 1.9999999999999996 0 Z"/></g><g transform="matrix(1,0,0,1,0,0)"><path fill="none" stroke="rgb(0,0,0)" id="_A6EC067D-15F4-42C4-B407-A116882D0C63?shapeType=BORDER&amp;renderType=STROKE" paint-order="fill stroke markers" d=" M 2 0 L 152 0 L 152 0 A 2 2 0 0 1 154 2 L 154 100 L 154 100 A 2 2 0 0 1 152 102 L 2 102 L 2 102 A 2 2 0 0 1 0 100 L 0 2 L 0 2.0000000000000004 A 2 2 0 0 1 1.9999999999999996 0 Z" stroke-miterlimit="10" stroke-width="1.5" stroke-dasharray=""/></g><g transform="matrix(1,0,0,1,61,43.5)"><text fill="#000000" stroke="none" font-family="Open Sans" font-size="12pt" font-style="normal" font-weight="normal" text-decoration="normal" x="16" y="12" text-anchor="middle" dominant-baseline="alphabetic">拒保</text></g></g><g id="_7870DC41-125F-4086-8F50-8B7FFB016F5C" bpmn2nodeid="_7870DC41-125F-4086-8F50-8B7FFB016F5C"><g><path fill="none" stroke="#000000" paint-order="fill stroke markers" d=" M 891 269 L 1001.2165667178984 521.254742564674" stroke-miterlimit="10" stroke-dasharray=""/></g><g transform="matrix(1,0,0,1,891,269)"/><g transform="matrix(-0.9163504956884033,0.4003770336215822,-0.4003770336215822,-0.9163504956884033,1011.8039747006642,532.998114831892)"><path fill="#000000" stroke="#000000" paint-order="fill stroke markers" d=" M 10 15 L 0 15 L 5 0 Z" stroke-miterlimit="10" stroke-dasharray=""/></g><g transform="matrix(1,0,0,1,918.2369127058369,397.99622966378416)"/></g><g transform="matrix(1,0,0,1,1007.2222222222222,484)"/><g id="_E4E9719E-182E-4917-9491-40DE7C545993" bpmn2nodeid="_E4E9719E-182E-4917-9491-40DE7C545993" transform="matrix(1,0,0,1,1241.2222222222222,507)"><g><path fill="none" stroke="none"/></g><g transform="matrix(0.125,0,0,0.125,0,0)"><g transform="matrix(1,0,0,1,0,0)"><path fill="#fce7e7" stroke="none" id="_E4E9719E-182E-4917-9491-40DE7C545993?shapeType=BACKGROUND" paint-order="stroke fill markers" d=" M 0 0 M 444 224 C 444 263.9 434.2 300.8 414.4 334.5 C 394.7 368.2 368 394.9 334.4 414.5 C 300.79999999999995 434.1 263.9 444 224 444 C 184.10000000000002 444 147.2 434.2 113.5 414.4 C 79.8 394.7 53.1 368 33.5 334.4 C 13.899999999999999 300.79999999999995 4 263.9 4 224 C 4 184.10000000000002 13.8 147.2 33.6 113.5 C 53.400000000000006 79.80000000000001 80.1 53.1 113.6 33.5 C 147.1 13.899999999999999 184.1 4 224 4 C 263.9 4 300.8 13.8 334.5 33.6 C 368.2 53.400000000000006 394.9 80.1 414.5 113.6 C 434.1 147.1 444 184.1 444 224 Z"/></g><g><g transform="matrix(1,0,0,1,0,0)"><g transform="matrix(1,0,0,1,0,0)"><path fill="rgb(163,0,0)" stroke="none" id="_E4E9719E-182E-4917-9491-40DE7C545993?shapeType=BORDER&amp;renderType=FILL" paint-order="stroke fill markers" d=" M 0 0 M 224 0 C 100.3 0 0 100.3 0 224 C 0 347.7 100.3 448 224 448 C 347.7 448 448 347.7 448 224 C 448 100.30000000000001 347.7 0 224 0 Z M 0 0 M 224 400 C 126.8 400 48 321.2 48 224 C 48 126.80000000000001 126.8 48 224 48 C 321.2 48 400 126.8 400 224 C 400 321.2 321.2 400 224 400 Z"/></g></g></g></g><g transform="matrix(1,0,0,1,28,61)"/></g><g id="_CEE6E781-31FF-40ED-A78C-44FB63784B7A" bpmn2nodeid="_CEE6E781-31FF-40ED-A78C-44FB63784B7A"><g><path fill="none" stroke="#000000" paint-order="fill stroke markers" d=" M 1161.2222222222222 535 L 1226.2222222222222 535" stroke-miterlimit="10" stroke-dasharray=""/></g><g transform="matrix(1,0,0,1,1161.2222222222222,535)"/><g transform="matrix(6.123233995736766e-17,1,-1,6.123233995736766e-17,1241.2222222222222,530)"><path fill="#000000" stroke="#000000" paint-order="fill stroke markers" d=" M 10 15 L 0 15 L 5 0 Z" stroke-miterlimit="10" stroke-dasharray=""/></g><g transform="matrix(1,0,0,1,1161.2222222222222,525)"/></g><g transform="matrix(1,0,0,1,1241.2222222222222,507)"/><g id="_2D6BF6D7-65AF-4C9A-ABA1-25FBAD6C625F" bpmn2nodeid="_2D6BF6D7-65AF-4C9A-ABA1-25FBAD6C625F" transform="matrix(1,0,0,1,1007.2222222222222,220)"><g><path fill="none" stroke="none"/></g><g transform="matrix(1,0,0,1,0,0)"><path fill="#ffffff" stroke="none" id="_2D6BF6D7-65AF-4C9A-ABA1-25FBAD6C625F?shapeType=BACKGROUND" paint-order="stroke fill markers" d=" M 2 0 L 152 0 L 152 0 A 2 2 0 0 1 154 2 L 154 100 L 154 100 A 2 2 0 0 1 152 102 L 2 102 L 2 102 A 2 2 0 0 1 0 100 L 0 2 L 0 2.0000000000000004 A 2 2 0 0 1 1.9999999999999996 0 Z"/></g><g transform="matrix(1,0,0,1,0,0)"><path fill="none" stroke="rgb(0,0,0)" id="_2D6BF6D7-65AF-4C9A-ABA1-25FBAD6C625F?shapeType=BORDER&amp;renderType=STROKE" paint-order="fill stroke markers" d=" M 2 0 L 152 0 L 152 0 A 2 2 0 0 1 154 2 L 154 100 L 154 100 A 2 2 0 0 1 152 102 L 2 102 L 2 102 A 2 2 0 0 1 0 100 L 0 2 L 0 2.0000000000000004 A 2 2 0 0 1 1.9999999999999996 0 Z" stroke-miterlimit="10" stroke-width="1.5" stroke-dasharray=""/></g><g transform="matrix(1,0,0,1,61,43.5)"><text fill="#000000" stroke="none" font-family="Open Sans" font-size="12pt" font-style="normal" font-weight="normal" text-decoration="normal" x="16" y="12" text-anchor="middle" dominant-baseline="alphabetic">加費</text></g></g><g id="_79284110-35C9-478F-B64B-A7A80117C3D1" bpmn2nodeid="_79284110-35C9-478F-B64B-A7A80117C3D1"><g><path fill="none" stroke="#000000" paint-order="fill stroke markers" d=" M 891 269 L 992.224442700158 270.7419120158727" stroke-miterlimit="10" stroke-dasharray=""/></g><g transform="matrix(1,0,0,1,891,269)"/><g transform="matrix(-0.017205865608487574,0.9998519681376152,-0.9998519681376152,-0.017205865608487574,1007.3082515502646,266.00074015931193)"><path fill="#000000" stroke="#000000" paint-order="fill stroke markers" d=" M 10 15 L 0 15 L 5 0 Z" stroke-miterlimit="10" stroke-dasharray=""/></g><g transform="matrix(1,0,0,1,891.1720586560849,260.00148031862386)"/></g><g transform="matrix(1,0,0,1,1007.2222222222222,220)"/><g id="_5990275E-4C62-4E04-A0BF-EBFC0C8DE9E8" bpmn2nodeid="_5990275E-4C62-4E04-A0BF-EBFC0C8DE9E8" transform="matrix(1,0,0,1,1240.888888888889,277)"><g><path fill="none" stroke="none"/></g><g transform="matrix(0.125,0,0,0.125,0,0)"><g transform="matrix(1,0,0,1,0,0)"><path fill="#fef4ea" stroke="none" id="_5990275E-4C62-4E04-A0BF-EBFC0C8DE9E8?shapeType=BACKGROUND" paint-order="stroke fill markers" d=" M 0 0 M 224.4 4.3 C 216.4 4.3 208.4 7.3 202.3 13.399999999999999 L 13.5 202.2 C 1.3000000000000007 214.39999999999998 1.3000000000000007 234.2 13.5 246.39999999999998 L 202.2 435.09999999999997 C 208.29999999999998 441.2 216.39999999999998 444.2 224.29999999999998 444.2 C 232.2 444.2 240.29999999999998 441.2 246.39999999999998 435.09999999999997 L 435.09999999999997 246.39999999999998 C 447.29999999999995 234.2 447.29999999999995 214.39999999999998 435.09999999999997 202.2 L 246.5 13.4 C 240.4 7.3 232.4 4.3 224.4 4.3 L 224.4 4.3 Z"/></g><g><g transform="matrix(1,0,0,1,0,0)"><g transform="matrix(1,0,0,1,0,0)"><path fill="rgb(236,122,8)" stroke="none" id="_5990275E-4C62-4E04-A0BF-EBFC0C8DE9E8?shapeType=BORDER&amp;renderType=FILL" paint-order="stroke fill markers" d=" M 0 0 M 20.8 212.7 L 213.3 20.2 C 219.60000000000002 13.899999999999999 229.70000000000002 13.899999999999999 235.9 20.2 L 428.4 212.7 C 434.7 219 434.7 229.1 428.4 235.29999999999998 L 235.9 427.8 C 229.6 434.1 219.5 434.1 213.3 427.8 L 20.8 235.3 C 14.5 229.1 14.5 218.9 20.8 212.7 L 20.8 212.7 Z M 0 0 M 0 224 C 0 232.1 3.1 240.3 9.3 246.5 L 201.5 438.7 C 213.9 451.09999999999997 234.1 451.09999999999997 246.5 438.7 L 438.7 246.5 C 444.9 240.3 448 232.1 448 224 C 448 215.9 444.9 207.7 438.7 201.5 L 246.5 9.3 C 234.1 -3.0999999999999996 213.9 -3.0999999999999996 201.5 9.3 L 9.3 201.5 C 3.1 207.7 0 215.9 0 224 L 0 224 Z"/></g></g></g><g><g transform="matrix(1,0,0,1,0,0)"><g transform="matrix(1,0,0,1,0,0)"><path fill="#ec7a08" stroke="none" id="_5990275E-4C62-4E04-A0BF-EBFC0C8DE9E8undefined" paint-order="stroke fill markers" d=" M 0 0 M 298.2 269.2 C 298.2 272.59999999999997 297.09999999999997 275.3 294.7 277.7 L 277.7 294.7 C 275.3 297.09999999999997 272.59999999999997 298.2 269.2 298.2 C 265.8 298.2 263.09999999999997 297.09999999999997 260.7 294.7 L 224 258 L 187.2 294.8 C 184.79999999999998 297.2 182.1 298.3 178.7 298.3 C 175.29999999999998 298.3 172.6 297.2 170.2 294.8 L 153.2 277.8 C 150.79999999999998 275.40000000000003 149.7 272.7 149.7 269.3 C 149.7 265.90000000000003 150.79999999999998 263.2 153.2 260.8 L 190 224 L 153.2 187.2 C 150.79999999999998 184.79999999999998 149.7 182 149.7 178.7 C 149.7 175.29999999999998 150.79999999999998 172.5 153.2 170.2 L 170.2 153.2 C 172.6 150.79999999999998 175.29999999999998 149.7 178.7 149.7 C 182.1 149.7 184.79999999999998 150.79999999999998 187.2 153.2 L 224 190 L 260.8 153.2 C 263.2 150.79999999999998 265.90000000000003 149.7 269.3 149.7 C 272.7 149.7 275.40000000000003 150.79999999999998 277.8 153.2 L 294.8 170.2 C 297.2 172.5 298.3 175.29999999999998 298.3 178.7 C 298.3 182 297.2 184.79999999999998 294.8 187.2 L 258 224 L 294.8 260.8 C 297.1 263.1 298.2 265.9 298.2 269.2 Z"/></g></g></g></g><g transform="matrix(1,0,0,1,28,61)"/></g><g id="_37B36E25-078A-4006-9799-D86112FD4485" bpmn2nodeid="_37B36E25-078A-4006-9799-D86112FD4485"><g><path fill="none" stroke="#000000" paint-order="fill stroke markers" d=" M 863 241 L 863 61.44444444444446 L 1268.888888888889 61.44444444444446 L 1268.888888888889 262" stroke-miterlimit="10" stroke-dasharray=""/></g><g transform="matrix(1,0,0,1,863,241)"/><g transform="matrix(-1,1.2246467991473532e-16,-1.2246467991473532e-16,-1,1273.888888888889,277)"><path fill="#000000" stroke="#000000" paint-order="fill stroke markers" d=" M 10 15 L 0 15 L 5 0 Z" stroke-miterlimit="10" stroke-dasharray=""/></g><g transform="matrix(1,0,0,1,873,151.22222222222223)"/></g><g id="_B76E1924-922D-4938-966B-A454008C7782" bpmn2nodeid="_B76E1924-922D-4938-966B-A454008C7782"><g><path fill="none" stroke="#000000" paint-order="fill stroke markers" d=" M 1161.2222222222222 271 L 1227.0927720551924 299.11211750193706" stroke-miterlimit="10" stroke-dasharray=""/></g><g transform="matrix(1,0,0,1,1161.2222222222222,271)"/><g transform="matrix(-0.3925254998708629,0.9197411222464337,-0.9197411222464337,-0.3925254998708629,1242.8515163882432,300.40129438876784)"><path fill="#000000" stroke="#000000" paint-order="fill stroke markers" d=" M 10 15 L 0 15 L 5 0 Z" stroke-miterlimit="10" stroke-dasharray=""/></g><g transform="matrix(1,0,0,1,1165.147477220931,278.8025887775357)"/></g><g id="_23B96082-82B2-49DE-A41F-7721EE740218" bpmn2nodeid="_23B96082-82B2-49DE-A41F-7721EE740218"><g><path fill="none" stroke="#000000" paint-order="fill stroke markers" d=" M 1161.2222222222222 403 L 1231.427018972554 316.63928767950836" stroke-miterlimit="10" stroke-dasharray=""/></g><g transform="matrix(1,0,0,1,1161.2222222222222,403)"/><g transform="matrix(0.7759525119672236,0.6307913277556658,-0.6307913277556658,0.7759525119672236,1237.0091263290528,301.8460433612217)"><path fill="#000000" stroke="#000000" paint-order="fill stroke markers" d=" M 10 15 L 0 15 L 5 0 Z" stroke-miterlimit="10" stroke-dasharray=""/></g><g transform="matrix(1,0,0,1,1168.9817473418943,347.6920867224433)"/></g><g id="_D7F0AD18-3466-455B-98A4-E10595E6DDC9" bpmn2nodeid="_D7F0AD18-3466-455B-98A4-E10595E6DDC9"><g><path fill="none" stroke="rgb(0,0,0)" paint-order="fill stroke markers" d=" M 1161.2222222222222 147 L 1234.1355121543743 291.6062737566532" stroke-miterlimit="10" stroke-dasharray=""/></g><g transform="matrix(1,0,0,1,1161.2222222222222,147)"/><g transform="matrix(-0.892915082889786,0.45022511563430856,-0.45022511563430856,-0.892915082889786,1245.353464303338,302.7488744218285)"><path fill="rgb(0,0,0)" stroke="rgb(0,0,0)" paint-order="fill stroke markers" d=" M 10 15 L 0 15 L 5 0 Z" stroke-miterlimit="10" stroke-dasharray=""/></g><g transform="matrix(1,0,0,1,1170.1513730511201,221.49774884365695)"/></g><g transform="matrix(1,0,0,1,1240.888888888889,277)"/><g id="_A35C85DD-DBC7-4572-AA8B-63F17F1A5D60" bpmn2nodeid="_A35C85DD-DBC7-4572-AA8B-63F17F1A5D60"><g><path fill="none" stroke="#000000" paint-order="fill stroke markers" d=" M 1296.888888888889 305 L 1355.1383733527634 312.9672547139038" stroke-miterlimit="10" stroke-dasharray=""/></g><g transform="matrix(1,0,0,1,1296.888888888889,305)"/><g transform="matrix(-0.13551635240641377,0.9907751098157749,-0.9907751098157749,-0.13551635240641377,1370.677581762032,310.0461244509211)"><path fill="#000000" stroke="#000000" paint-order="fill stroke markers" d=" M 10 15 L 0 15 L 5 0 Z" stroke-miterlimit="10" stroke-dasharray=""/></g><g transform="matrix(1,0,0,1,1298.2440524129531,300.09224890184225)"/></g><g id="_A09B2CB9-5200-41DE-AC77-B4BAFBBFFF84" bpmn2nodeid="_A09B2CB9-5200-41DE-AC77-B4BAFBBFFF84" transform="matrix(1,0,0,1,1604,287)"><g><path fill="none" stroke="none"/></g><g transform="matrix(0.125,0,0,0.125,0,0)"><g transform="matrix(1,0,0,1,0,0)"><path fill="#fce7e7" stroke="none" id="_A09B2CB9-5200-41DE-AC77-B4BAFBBFFF84?shapeType=BACKGROUND" paint-order="stroke fill markers" d=" M 0 0 M 444 224 C 444 263.9 434.2 300.8 414.4 334.5 C 394.7 368.2 368 394.9 334.4 414.5 C 300.79999999999995 434.1 263.9 444 224 444 C 184.10000000000002 444 147.2 434.2 113.5 414.4 C 79.8 394.7 53.1 368 33.5 334.4 C 13.899999999999999 300.79999999999995 4 263.9 4 224 C 4 184.10000000000002 13.8 147.2 33.6 113.5 C 53.400000000000006 79.80000000000001 80.1 53.1 113.6 33.5 C 147.1 13.899999999999999 184.1 4 224 4 C 263.9 4 300.8 13.8 334.5 33.6 C 368.2 53.400000000000006 394.9 80.1 414.5 113.6 C 434.1 147.1 444 184.1 444 224 Z"/></g><g><g transform="matrix(1,0,0,1,0,0)"><g transform="matrix(1,0,0,1,0,0)"><path fill="rgb(163,0,0)" stroke="none" id="_A09B2CB9-5200-41DE-AC77-B4BAFBBFFF84?shapeType=BORDER&amp;renderType=FILL" paint-order="stroke fill markers" d=" M 0 0 M 224 0 C 100.3 0 0 100.3 0 224 C 0 347.7 100.3 448 224 448 C 347.7 448 448 347.7 448 224 C 448 100.30000000000001 347.7 0 224 0 Z M 0 0 M 224 400 C 126.8 400 48 321.2 48 224 C 48 126.80000000000001 126.8 48 224 48 C 321.2 48 400 126.8 400 224 C 400 321.2 321.2 400 224 400 Z"/></g></g></g></g><g transform="matrix(1,0,0,1,28,61)"/></g><g id="_36E099D1-7F32-4C44-B53E-7496F60A2EB2" bpmn2nodeid="_36E099D1-7F32-4C44-B53E-7496F60A2EB2"><g><path fill="none" stroke="#000000" paint-order="fill stroke markers" d=" M 1524 315 L 1589 315" stroke-miterlimit="10" stroke-dasharray=""/></g><g transform="matrix(1,0,0,1,1524,315)"/><g transform="matrix(6.123233995736766e-17,1,-1,6.123233995736766e-17,1604,310)"><path fill="#000000" stroke="#000000" paint-order="fill stroke markers" d=" M 10 15 L 0 15 L 5 0 Z" stroke-miterlimit="10" stroke-dasharray=""/></g><g transform="matrix(1,0,0,1,1524,305)"/></g><g transform="matrix(1,0,0,1,1604,287)"/><g id="_F0A6AAA2-A363-4FCB-8861-55A5969B2657" bpmn2nodeid="_F0A6AAA2-A363-4FCB-8861-55A5969B2657"><g><path fill="none" stroke="#000000" paint-order="fill stroke markers" d=" M 750 128 L 827.255783820665 256.15371198486787" stroke-miterlimit="10" stroke-dasharray=""/></g><g transform="matrix(1,0,0,1,750,128)"/><g transform="matrix(-0.8564192010088058,0.5162810786223322,-0.5162810786223322,-0.8564192010088058,839.2820960050441,266.41859460688835)"><path fill="#000000" stroke="#000000" paint-order="fill stroke markers" d=" M 10 15 L 0 15 L 5 0 Z" stroke-miterlimit="10" stroke-dasharray=""/></g><g transform="matrix(1,0,0,1,758.564192010088,193.3371892137767)"/></g><g id="_3B64426E-FD14-41EF-BFE5-1B269870082F" bpmn2nodeid="_3B64426E-FD14-41EF-BFE5-1B269870082F" transform="matrix(1,0,0,1,596,215)"><g><path fill="none" stroke="none"/></g><g transform="matrix(1,0,0,1,0,0)"><path fill="#ffffff" stroke="none" id="_3B64426E-FD14-41EF-BFE5-1B269870082F?shapeType=BACKGROUND" paint-order="stroke fill markers" d=" M 2 0 L 152 0 L 152 0 A 2 2 0 0 1 154 2 L 154 100 L 154 100 A 2 2 0 0 1 152 102 L 2 102 L 2 102 A 2 2 0 0 1 0 100 L 0 2 L 0 2.0000000000000004 A 2 2 0 0 1 1.9999999999999996 0 Z"/></g><g transform="matrix(1,0,0,1,0,0)"><path fill="none" stroke="rgb(0,0,0)" id="_3B64426E-FD14-41EF-BFE5-1B269870082F?shapeType=BORDER&amp;renderType=STROKE" paint-order="fill stroke markers" d=" M 2 0 L 152 0 L 152 0 A 2 2 0 0 1 154 2 L 154 100 L 154 100 A 2 2 0 0 1 152 102 L 2 102 L 2 102 A 2 2 0 0 1 0 100 L 0 2 L 0 2.0000000000000004 A 2 2 0 0 1 1.9999999999999996 0 Z" stroke-miterlimit="10" stroke-width="1.5" stroke-dasharray=""/></g><g transform="matrix(1,0,0,1,29,43.5)"><text fill="#000000" stroke="none" font-family="Open Sans" font-size="12pt" font-style="normal" font-weight="normal" text-decoration="normal" x="48" y="12" text-anchor="middle" dominant-baseline="alphabetic">高保額或其他</text></g></g><g id="_17B35B95-A19A-4CD8-94DF-0597D6622F33" bpmn2nodeid="_17B35B95-A19A-4CD8-94DF-0597D6622F33" transform="matrix(1,0,0,1,0,0)"><g><path fill="none" stroke="rgb(0,0,0)" paint-order="fill stroke markers" d=" M 511 269 L 581.0093338412605 266.5290823350143" stroke-miterlimit="10" stroke-dasharray=""/></g><g transform="matrix(1,0,0,1,511,269)"/><g transform="matrix(0.035272155667621395,0.9993777439159625,-0.9993777439159625,0.035272155667621395,595.8236392216619,261.00311128042017)"><path fill="rgb(0,0,0)" stroke="rgb(0,0,0)" paint-order="fill stroke markers" d=" M 10 15 L 0 15 L 5 0 Z" stroke-miterlimit="10" stroke-dasharray=""/></g><g transform="matrix(1,0,0,1,511.3527215566762,257.5062225608404)"/></g><g transform="matrix(1,0,0,1,596,215)"/><g id="_BBE56D12-9CF9-4C30-9C45-194EF64C9702" bpmn2nodeid="_BBE56D12-9CF9-4C30-9C45-194EF64C9702"><g><path fill="none" stroke="#000000" paint-order="fill stroke markers" d=" M 750 266 L 820.0093338412605 268.4709176649857" stroke-miterlimit="10" stroke-dasharray=""/></g><g transform="matrix(1,0,0,1,750,266)"/><g transform="matrix(-0.03527215566762127,0.9993777439159625,-0.9993777439159625,-0.03527215566762127,835.1763607783381,264.00311128042017)"><path fill="#000000" stroke="#000000" paint-order="fill stroke markers" d=" M 10 15 L 0 15 L 5 0 Z" stroke-miterlimit="10" stroke-dasharray=""/></g><g transform="matrix(1,0,0,1,750.3527215566762,257.5062225608404)"/></g><g id="_70BE637F-1DDD-48C2-AE42-33F495954966" bpmn2nodeid="_70BE637F-1DDD-48C2-AE42-33F495954966" transform="matrix(1,0,0,1,596,379)"><g><path fill="none" stroke="none"/></g><g transform="matrix(1,0,0,1,0,0)"><path fill="#ffffff" stroke="none" id="_70BE637F-1DDD-48C2-AE42-33F495954966?shapeType=BACKGROUND" paint-order="stroke fill markers" d=" M 2 0 L 152 0 L 152 0 A 2 2 0 0 1 154 2 L 154 100 L 154 100 A 2 2 0 0 1 152 102 L 2 102 L 2 102 A 2 2 0 0 1 0 100 L 0 2 L 0 2.0000000000000004 A 2 2 0 0 1 1.9999999999999996 0 Z"/></g><g transform="matrix(1,0,0,1,0,0)"><path fill="none" stroke="rgb(0,0,0)" id="_70BE637F-1DDD-48C2-AE42-33F495954966?shapeType=BORDER&amp;renderType=STROKE" paint-order="fill stroke markers" d=" M 2 0 L 152 0 L 152 0 A 2 2 0 0 1 154 2 L 154 100 L 154 100 A 2 2 0 0 1 152 102 L 2 102 L 2 102 A 2 2 0 0 1 0 100 L 0 2 L 0 2.0000000000000004 A 2 2 0 0 1 1.9999999999999996 0 Z" stroke-miterlimit="10" stroke-width="1.5" stroke-dasharray=""/></g><g transform="matrix(1,0,0,1,29,43.5)"><text fill="#000000" stroke="none" font-family="Open Sans" font-size="12pt" font-style="normal" font-weight="normal" text-decoration="normal" x="48" y="12" text-anchor="middle" dominant-baseline="alphabetic">低保額或其他</text></g></g><g id="_74F16316-1774-48F5-BE27-85319CE5F60D" bpmn2nodeid="_74F16316-1774-48F5-BE27-85319CE5F60D" transform="matrix(1,0,0,1,0,0)"><g><path fill="none" stroke="rgb(0,0,0)" paint-order="fill stroke markers" d=" M 511 269 L 588.9968307594135 416.73517355606555" stroke-miterlimit="10" stroke-dasharray=""/></g><g transform="matrix(1,0,0,1,511,269)"/><g transform="matrix(-0.884321762928963,0.4668779493724361,-0.4668779493724361,-0.884321762928963,600.4216088146449,427.6656102531378)"><path fill="rgb(0,0,0)" stroke="rgb(0,0,0)" paint-order="fill stroke markers" d=" M 10 15 L 0 15 L 5 0 Z" stroke-miterlimit="10" stroke-dasharray=""/></g><g transform="matrix(1,0,0,1,519.8432176292896,344.83122050627566)"/></g><g transform="matrix(1,0,0,1,596,379)"/><g id="_BB228900-939B-42B6-9146-66BC343A3866" bpmn2nodeid="_BB228900-939B-42B6-9146-66BC343A3866"><g><path fill="none" stroke="#000000" paint-order="fill stroke markers" d=" M 750 430 L 827.9968307594135 282.26482644393445" stroke-miterlimit="10" stroke-dasharray=""/></g><g transform="matrix(1,0,0,1,750,430)"/><g transform="matrix(0.884321762928963,0.466877949372436,-0.466877949372436,0.884321762928963,830.5783911853551,266.6656102531378)"><path fill="#000000" stroke="#000000" paint-order="fill stroke markers" d=" M 10 15 L 0 15 L 5 0 Z" stroke-miterlimit="10" stroke-dasharray=""/></g><g transform="matrix(1,0,0,1,758.8432176292896,344.83122050627566)"/></g></g></g></svg>