<svg version="1.1" xmlns="http://www.w3.org/2000/svg" xmlns:xlink="http://www.w3.org/1999/xlink" width="702" height="229" viewBox="0 0 702 229"><defs/><g transform="matrix(1,0,0,1,0,0)"><g><g><g><path fill="none" stroke="#d3d3d3" paint-order="fill stroke markers" d=" M 0 0 L 1200 0" stroke-miterlimit="10" stroke-opacity="0.8" stroke-dasharray="5"/></g><g><path fill="none" stroke="#d3d3d3" paint-order="fill stroke markers" d=" M 0 0 L 0 800" stroke-miterlimit="10" stroke-opacity="0.8" stroke-dasharray="5"/></g></g><g id="_B5C66D90-F4EF-43C3-AC11-9C4293F2F908" bpmn2nodeid="_B5C66D90-F4EF-43C3-AC11-9C4293F2F908" transform="matrix(1,0,0,1,100,100)"><g><path fill="none" stroke="none"/></g><g transform="matrix(0.125,0,0,0.125,0,0)"><g transform="matrix(1,0,0,1,0,0)"><path fill="#e8fae6" stroke="none" id="_B5C66D90-F4EF-43C3-AC11-9C4293F2F908?shapeType=BACKGROUND" paint-order="stroke fill markers" d=" M 0 0 M 444 224 C 444 263.9 434.2 300.8 414.4 334.5 C 394.7 368.2 368 394.9 334.4 414.5 C 300.79999999999995 434.1 263.9 444 224 444 C 184.10000000000002 444 147.2 434.2 113.5 414.4 C 79.8 394.7 53.1 368 33.5 334.4 C 13.899999999999999 300.79999999999995 4 263.9 4 224 C 4 184.10000000000002 13.8 147.2 33.6 113.5 C 53.400000000000006 79.80000000000001 80.1 53.1 113.6 33.5 C 147.1 13.899999999999999 184.1 4 224 4 C 263.9 4 300.8 13.8 334.5 33.6 C 368.2 53.400000000000006 394.9 80.1 414.5 113.6 C 434.1 147.1 444 184.1 444 224 Z"/></g><g><g transform="matrix(1,0,0,1,0,0)"><g transform="matrix(1,0,0,1,0,0)"><path fill="rgb(74,162,65)" stroke="none" id="_B5C66D90-F4EF-43C3-AC11-9C4293F2F908?shapeType=BORDER&amp;renderType=FILL" paint-order="stroke fill markers" d=" M 0 0 M 224 0 C 100.3 0 0 100.3 0 224 C 0 347.7 100.3 448 224 448 C 347.7 448 448 347.7 448 224 C 448 100.30000000000001 347.7 0 224 0 Z M 0 0 M 224 432 C 109.1 432 16 338.9 16 224 C 16 109.10000000000002 109.1 16 224 16 C 338.9 16 432 109.1 432 224 C 432 338.9 338.9 432 224 432 Z"/></g></g></g></g><g transform="matrix(1,0,0,1,28,61)"/></g><g transform="matrix(1,0,0,1,100,100)"/><g id="_645377F8-0122-4188-ACDA-C0A5FFC14952" bpmn2nodeid="_645377F8-0122-4188-ACDA-C0A5FFC14952" transform="matrix(1,0,0,1,236,77.5)"><g><path fill="none" stroke="none"/></g><g transform="matrix(1,0,0,1,0,0)"><path fill="#ffffff" stroke="none" id="_645377F8-0122-4188-ACDA-C0A5FFC14952?shapeType=BACKGROUND" paint-order="stroke fill markers" d=" M 2 0 L 151 0 L 151 0 A 2 2 0 0 1 153 2 L 153 99 L 153 99 A 2 2 0 0 1 151 101 L 2 101 L 2 101 A 2 2 0 0 1 0 99 L 0 2 L 0 2.0000000000000004 A 2 2 0 0 1 1.9999999999999996 0 Z"/></g><g transform="matrix(1,0,0,1,0,0)"><path fill="none" stroke="rgb(57,63,68)" id="_645377F8-0122-4188-ACDA-C0A5FFC14952?shapeType=BORDER&amp;renderType=STROKE" paint-order="fill stroke markers" d=" M 2 0 L 151 0 L 151 0 A 2 2 0 0 1 153 2 L 153 99 L 153 99 A 2 2 0 0 1 151 101 L 2 101 L 2 101 A 2 2 0 0 1 0 99 L 0 2 L 0 2.0000000000000004 A 2 2 0 0 1 1.9999999999999996 0 Z" stroke-miterlimit="10" stroke-width="1.5" stroke-dasharray=""/></g><g transform="matrix(1,0,0,1,1,10)"><g transform="matrix(1,0,0,1,0,0)"><g transform="matrix(1,0,0,1,63,66)"><path fill="none" stroke="#393f44" id="_645377F8-0122-4188-ACDA-C0A5FFC14952undefined" paint-order="fill stroke markers" d=" M 0 0 L 25 0 L 25 25 L 0 25 L 0 0 Z Z" stroke-miterlimit="10" stroke-width="1.5" stroke-dasharray=""/></g><g transform="matrix(0.04,0,0,0.04,68.64,69.6)"><path fill="#000000" stroke="#000000" id="_645377F8-0122-4188-ACDA-C0A5FFC14952undefined" paint-order="fill stroke markers" d=" M 0 0 M 352 184 L 352 232 C 352 238.7 349.7 244.3 345 249 C 340.3 253.7 334.7 256 328 256 L 224 256 L 224 360 C 224 366.7 221.7 372.3 217 377 C 212.3 381.7 206.7 384 200 384 L 152 384 C 145.3 384 139.7 381.7 135 377 C 130.3 372.3 128 366.7 128 360 L 128 256 L 24 256 C 17.3 256 11.7 253.7 7 249 C 2.3000000000000007 244.3 0 238.7 0 232 L 0 184 C 0 177.3 2.3 171.7 7 167 C 11.7 162.3 17.3 160 24 160 L 128 160 L 128 56 C 128 49.3 130.3 43.7 135 39 C 139.7 34.3 145.3 32 152 32 L 200 32 C 206.7 32 212.3 34.3 217 39 C 221.7 43.7 224 49.3 224 56 L 224 160 L 328 160 C 334.7 160 340.3 162.3 345 167 C 349.7 171.7 352 177.3 352 184 Z" stroke-miterlimit="10" stroke-dasharray=""/></g></g></g><g transform="matrix(1,0,0,1,12.82,10)"><g transform="matrix(1,0,0,1,0,0)"><g transform="matrix(1,0,0,1,63,66)"><path fill="none" stroke="none"/></g><g transform="matrix(0.04,0,0,0.04,68.64,69.6)"><path fill="none" stroke="none"/></g><g transform="matrix(0.04,0,0,0.04,40.32,71.04)"><path fill="none" stroke="none"/></g><g transform="matrix(0.04,0,0,0.04,39.36,72)"><path fill="none" stroke="none"/></g></g></g><g transform="matrix(1,0,0,1,44.5,43)"><text fill="#000000" stroke="none" font-family="Open Sans" font-size="12pt" font-style="normal" font-weight="normal" text-decoration="normal" x="32" y="12" text-anchor="middle" dominant-baseline="alphabetic">核保規則</text></g></g><g id="_A6622B95-260B-455C-8FF4-59B37BDB83CF" bpmn2nodeid="_A6622B95-260B-455C-8FF4-59B37BDB83CF"><g><path fill="none" stroke="#000000" paint-order="fill stroke markers" d=" M 156 128 L 221 128" stroke-miterlimit="10" stroke-dasharray=""/></g><g transform="matrix(1,0,0,1,156,128)"/><g transform="matrix(6.123233995736766e-17,1,-1,6.123233995736766e-17,236,123)"><path fill="#000000" stroke="#000000" paint-order="fill stroke markers" d=" M 10 15 L 0 15 L 5 0 Z" stroke-miterlimit="10" stroke-dasharray=""/></g><g transform="matrix(1,0,0,1,156,118)"/></g><g transform="matrix(1,0,0,1,236,77.5)"/><g id="_F1AE383E-25F1-45A3-8AC1-5321A1C22482" bpmn2nodeid="_F1AE383E-25F1-45A3-8AC1-5321A1C22482" transform="matrix(1,0,0,1,460,100)"><g><path fill="none" stroke="none"/></g><g transform="matrix(0.125,0,0,0.125,0,0)"><g transform="matrix(1,0,0,1,0,0)"><path fill="#fef4ea" stroke="none" id="_F1AE383E-25F1-45A3-8AC1-5321A1C22482?shapeType=BACKGROUND" paint-order="stroke fill markers" d=" M 0 0 M 224.4 4.3 C 216.4 4.3 208.4 7.3 202.3 13.399999999999999 L 13.5 202.2 C 1.3000000000000007 214.39999999999998 1.3000000000000007 234.2 13.5 246.39999999999998 L 202.2 435.09999999999997 C 208.29999999999998 441.2 216.39999999999998 444.2 224.29999999999998 444.2 C 232.2 444.2 240.29999999999998 441.2 246.39999999999998 435.09999999999997 L 435.09999999999997 246.39999999999998 C 447.29999999999995 234.2 447.29999999999995 214.39999999999998 435.09999999999997 202.2 L 246.5 13.4 C 240.4 7.3 232.4 4.3 224.4 4.3 L 224.4 4.3 Z"/></g><g><g transform="matrix(1,0,0,1,0,0)"><g transform="matrix(1,0,0,1,0,0)"><path fill="rgb(236,122,8)" stroke="none" id="_F1AE383E-25F1-45A3-8AC1-5321A1C22482?shapeType=BORDER&amp;renderType=FILL" paint-order="stroke fill markers" d=" M 0 0 M 20.8 212.7 L 213.3 20.2 C 219.60000000000002 13.899999999999999 229.70000000000002 13.899999999999999 235.9 20.2 L 428.4 212.7 C 434.7 219 434.7 229.1 428.4 235.29999999999998 L 235.9 427.8 C 229.6 434.1 219.5 434.1 213.3 427.8 L 20.8 235.3 C 14.5 229.1 14.5 218.9 20.8 212.7 L 20.8 212.7 Z M 0 0 M 0 224 C 0 232.1 3.1 240.3 9.3 246.5 L 201.5 438.7 C 213.9 451.09999999999997 234.1 451.09999999999997 246.5 438.7 L 438.7 246.5 C 444.9 240.3 448 232.1 448 224 C 448 215.9 444.9 207.7 438.7 201.5 L 246.5 9.3 C 234.1 -3.0999999999999996 213.9 -3.0999999999999996 201.5 9.3 L 9.3 201.5 C 3.1 207.7 0 215.9 0 224 L 0 224 Z"/></g></g></g><g><g transform="matrix(1,0,0,1,0,0)"><g transform="matrix(1,0,0,1,0,0)"><path fill="#ec7a08" stroke="none" id="_F1AE383E-25F1-45A3-8AC1-5321A1C22482undefined" paint-order="stroke fill markers" d=" M 0 0 M 298.2 269.2 C 298.2 272.59999999999997 297.09999999999997 275.3 294.7 277.7 L 277.7 294.7 C 275.3 297.09999999999997 272.59999999999997 298.2 269.2 298.2 C 265.8 298.2 263.09999999999997 297.09999999999997 260.7 294.7 L 224 258 L 187.2 294.8 C 184.79999999999998 297.2 182.1 298.3 178.7 298.3 C 175.29999999999998 298.3 172.6 297.2 170.2 294.8 L 153.2 277.8 C 150.79999999999998 275.40000000000003 149.7 272.7 149.7 269.3 C 149.7 265.90000000000003 150.79999999999998 263.2 153.2 260.8 L 190 224 L 153.2 187.2 C 150.79999999999998 184.79999999999998 149.7 182 149.7 178.7 C 149.7 175.29999999999998 150.79999999999998 172.5 153.2 170.2 L 170.2 153.2 C 172.6 150.79999999999998 175.29999999999998 149.7 178.7 149.7 C 182.1 149.7 184.79999999999998 150.79999999999998 187.2 153.2 L 224 190 L 260.8 153.2 C 263.2 150.79999999999998 265.90000000000003 149.7 269.3 149.7 C 272.7 149.7 275.40000000000003 150.79999999999998 277.8 153.2 L 294.8 170.2 C 297.2 172.5 298.3 175.29999999999998 298.3 178.7 C 298.3 182 297.2 184.79999999999998 294.8 187.2 L 258 224 L 294.8 260.8 C 297.1 263.1 298.2 265.9 298.2 269.2 Z"/></g></g></g></g><g transform="matrix(1,0,0,1,28,61)"/></g><g transform="matrix(1,0,0,1,460,100)"/><g id="_F98F86E1-4DE3-4606-B7AB-F696C1B3C8EF" bpmn2nodeid="_F98F86E1-4DE3-4606-B7AB-F696C1B3C8EF"><g><path fill="none" stroke="#000000" paint-order="fill stroke markers" d=" M 389 128 L 445 128" stroke-miterlimit="10" stroke-dasharray=""/></g><g transform="matrix(1,0,0,1,389,128)"/><g transform="matrix(6.123233995736766e-17,1,-1,6.123233995736766e-17,460,123)"><path fill="#000000" stroke="#000000" paint-order="fill stroke markers" d=" M 10 15 L 0 15 L 5 0 Z" stroke-miterlimit="10" stroke-dasharray=""/></g><g transform="matrix(1,0,0,1,389,118)"/></g><g id="_C69C556B-99E3-4DD2-A815-48A3EF74665E" bpmn2nodeid="_C69C556B-99E3-4DD2-A815-48A3EF74665E" transform="matrix(1,0,0,1,596,100)"><g><path fill="none" stroke="none"/></g><g transform="matrix(0.125,0,0,0.125,0,0)"><g transform="matrix(1,0,0,1,0,0)"><path fill="#fce7e7" stroke="none" id="_C69C556B-99E3-4DD2-A815-48A3EF74665E?shapeType=BACKGROUND" paint-order="stroke fill markers" d=" M 0 0 M 444 224 C 444 263.9 434.2 300.8 414.4 334.5 C 394.7 368.2 368 394.9 334.4 414.5 C 300.79999999999995 434.1 263.9 444 224 444 C 184.10000000000002 444 147.2 434.2 113.5 414.4 C 79.8 394.7 53.1 368 33.5 334.4 C 13.899999999999999 300.79999999999995 4 263.9 4 224 C 4 184.10000000000002 13.8 147.2 33.6 113.5 C 53.400000000000006 79.80000000000001 80.1 53.1 113.6 33.5 C 147.1 13.899999999999999 184.1 4 224 4 C 263.9 4 300.8 13.8 334.5 33.6 C 368.2 53.400000000000006 394.9 80.1 414.5 113.6 C 434.1 147.1 444 184.1 444 224 Z"/></g><g><g transform="matrix(1,0,0,1,0,0)"><g transform="matrix(1,0,0,1,0,0)"><path fill="rgb(0,136,206)" stroke="none" id="_C69C556B-99E3-4DD2-A815-48A3EF74665E?shapeType=BORDER&amp;renderType=FILL" paint-order="stroke fill markers" d=" M 0 0 M 224 0 C 100.3 0 0 100.3 0 224 C 0 347.7 100.3 448 224 448 C 347.7 448 448 347.7 448 224 C 448 100.30000000000001 347.7 0 224 0 Z M 0 0 M 224 400 C 126.8 400 48 321.2 48 224 C 48 126.80000000000001 126.8 48 224 48 C 321.2 48 400 126.8 400 224 C 400 321.2 321.2 400 224 400 Z"/></g></g></g></g><g transform="matrix(1,0,0,1,28,61)"/></g><g id="_93E600CE-B0BB-4D38-8314-A3150AC48983" bpmn2nodeid="_93E600CE-B0BB-4D38-8314-A3150AC48983"><g><path fill="none" stroke="#000000" paint-order="fill stroke markers" d=" M 516 128 L 581 128" stroke-miterlimit="10" stroke-dasharray=""/></g><g transform="matrix(1,0,0,1,516,128)"/><g transform="matrix(6.123233995736766e-17,1,-1,6.123233995736766e-17,596,123)"><path fill="#000000" stroke="#000000" paint-order="fill stroke markers" d=" M 10 15 L 0 15 L 5 0 Z" stroke-miterlimit="10" stroke-dasharray=""/></g><g transform="matrix(1,0,0,1,516,118)"/></g><g transform="matrix(1,0,0,1,596,100)"/></g></g></svg>